<?xml version="1.0" encoding="UTF-8"?>
<svg xmlns="http://www.w3.org/2000/svg" xmlns:xlink="http://www.w3.org/1999/xlink" width="16pt" height="16pt" viewBox="0 0 16 16" version="1.1">
<g id="surface1">
<path style=" stroke:none;fill-rule:nonzero;fill:rgb(0%,69.803922%,62.745098%);fill-opacity:1;" d="M 3.042969 7.496094 L 4.273438 7.496094 L 5.050781 9.644531 L 5.835938 7.496094 L 7.054688 7.496094 L 5.886719 10.449219 L 6.75 12.515625 L 8.679688 7.476562 L 10.117188 7.476562 L 7.390625 13.96875 L 6.25 13.96875 L 5.050781 11.242188 L 3.859375 13.96875 L 2.71875 13.96875 L 0 7.476562 L 1.421875 7.476562 L 3.359375 12.515625 L 4.203125 10.449219 Z M 3.042969 7.496094 "/>
<path style=" stroke:none;fill-rule:nonzero;fill:rgb(0%,69.803922%,62.745098%);fill-opacity:1;" d="M 8.910156 2.160156 L 10.136719 2.160156 L 10.917969 4.308594 L 11.703125 2.160156 L 12.921875 2.160156 L 11.75 5.113281 L 12.617188 7.179688 L 14.546875 2.144531 L 15.984375 2.144531 L 13.257812 8.636719 L 12.117188 8.636719 L 10.917969 5.910156 L 9.726562 8.636719 L 8.582031 8.636719 L 5.867188 2.144531 L 7.289062 2.144531 L 9.226562 7.179688 L 10.070312 5.113281 Z M 8.910156 2.160156 "/>
</g>
</svg>
